0
SECTION
2
HEADER
9
$INSUNITS
70
4
9
$ACADVER
1
AC1014
9
$HANDSEED
5
FFFF
0
ENDSEC
0
SECTION
2
TABLES
0
TABLE
2
VPORT
5
8
100
AcDbSymbolTable
0
ENDTAB
0
TABLE
2
LTYPE
5
5
100
AcDbSymbolTable
0
LTYPE
5
14
100
AcDbSymbolTableRecord
100
AcDbLinetypeTableRecord
2
BYBLOCK
70
0
0
LTYPE
5
15
100
AcDbSymbolTableRecord
100
AcDbLinetypeTableRecord
2
BYLAYER
70
0
0
ENDTAB
0
TABLE
2
LAYER
5
2
100
AcDbSymbolTable
70
2
0
LAYER
5
50
100
AcDbSymbolTableRecord
100
AcDbLayerTableRecord
2
0
70
0
6
CONTINUOUS
0
ENDTAB
0
TABLE
2
STYLE
5
3
100
AcDbSymbolTable
70
1
0
STYLE
5
11
100
AcDbSymbolTableRecord
100
AcDbTextStyleTableRecord
2
STANDARD
70
0
0
ENDTAB
0
TABLE
2
VIEW
5
6
100
AcDbSymbolTable
70
0
0
ENDTAB
0
TABLE
2
UCS
5
7
100
AcDbSymbolTable
70
0
0
ENDTAB
0
TABLE
2
APPID
5
9
100
AcDbSymbolTable
70
2
0
APPID
5
12
100
AcDbSymbolTableRecord
100
AcDbRegAppTableRecord
2
ACAD
70
0
0
ENDTAB
0
TABLE
2
DIMSTYLE
5
A
100
AcDbSymbolTable
70
1
0
ENDTAB
0
TABLE
2
BLOCK_RECORD
5
1
100
AcDbSymbolTable
70
1
0
BLOCK_RECORD
5
1F
100
AcDbSymbolTableRecord
100
AcDbBlockTableRecord
2
*MODEL_SPACE
0
BLOCK_RECORD
5
1B
100
AcDbSymbolTableRecord
100
AcDbBlockTableRecord
2
*PAPER_SPACE
0
ENDTAB
0
ENDSEC
0
SECTION
2
BLOCKS
0
BLOCK
5
20
100
AcDbEntity
100
AcDbBlockBegin
2
*MODEL_SPACE
0
ENDBLK
5
21
100
AcDbEntity
100
AcDbBlockEnd
0
BLOCK
5
1C
100
AcDbEntity
100
AcDbBlockBegin
2
*PAPER_SPACE
0
ENDBLK
5
1D
100
AcDbEntity
100
AcDbBlockEnd
0
ENDSEC
0
SECTION
2
ENTITIES
0
LWPOLYLINE
5
100
100
AcDbEntity
8
0
100
AcDbPolyline
90
24
70
1
43
0.0
10
-130.00000000000003
20
129.99103170679228
10
-130.00000000000003
20
-150.00896829320772
42
0.41421356237309509
10
-120.00000000000003
20
-160.00896829320772
10
-52.499999999999986
20
-160.00896829320772
42
0.41421356237309553
10
-42.499999999999986
20
-150.00896829320772
10
-42.499999999999986
20
-60.000000000000014
42
-0.41421356237309437
10
-21.5
20
-39.000000000000014
10
22.000000000000025
20
-39.000000000000043
42
-0.4142135623730947
10
42.999999999999986
20
-60
10
43
20
-150.00896829320772
42
0.41421356237309448
10
53
20
-160.00896829320772
10
120
20
-160.00896829320772
42
0.41421356237309509
10
130
20
-150.00896829320774
10
129.99999999999997
20
129.99103170679226
42
0.41421356237309603
10
119.99999999999999
20
139.99103170679226
10
53.000000000000007
20
139.99103170679226
42
0.41421356237309603
10
43.000000000000007
20
129.99103170679226
10
43.000000000000007
20
60.999999999999979
42
-0.41421356237309565
10
22.000000000000046
20
40
10
-21.499999999999982
20
40.000000000000007
42
-0.4142135623730957
10
-42.499999999999986
20
61
10
-42.499999999999972
20
129.99103170679228
42
0.41421356237309476
10
-52.499999999999986
20
139.99103170679226
10
-120.00000000000003
20
139.99103170679228
42
0.41421356237309509
0
LWPOLYLINE
5
101
100
AcDbEntity
8
0
100
AcDbPolyline
90
4
70
1
43
0.0
10
50.5
20
26.999999999999993
10
43
20
26.999999999999993
10
43
20
-26.000000000000014
10
50.5
20
-26.000000000000014
0
LWPOLYLINE
5
102
100
AcDbEntity
8
0
100
AcDbPolyline
90
4
70
1
43
0.0
10
-42.499999999999986
20
26.999999999999993
10
-49.999999999999986
20
26.999999999999993
10
-49.999999999999986
20
-26.000000000000014
10
-42.499999999999986
20
-26.000000000000014
0
CIRCLE
5
103
100
AcDbEntity
8
0
100
AcDbCircle
10
-115.00000000000003
20
100.99103170679227
30
0
40
1.5000000000000113
210
0
220
0
230
1
0
CIRCLE
5
104
100
AcDbEntity
8
0
100
AcDbCircle
10
-58.000000000000036
20
100.99103170679227
30
0
40
1.5000000000000071
210
0
220
0
230
1
0
CIRCLE
5
105
100
AcDbEntity
8
0
100
AcDbCircle
10
-73.356647055684164
20
37.987868009172978
30
0
40
1.5000000000000002
210
0
220
0
230
1
0
CIRCLE
5
106
100
AcDbEntity
8
0
100
AcDbCircle
10
-110.22126423801768
20
-33.012131990827022
30
0
40
1.5000000000000002
210
0
220
0
230
1
0
CIRCLE
5
107
100
AcDbEntity
8
0
100
AcDbCircle
10
94.999999999999986
20
129.99103170679228
30
0
40
1.4999999999999996
210
0
220
0
230
1
0
CIRCLE
5
108
100
AcDbEntity
8
0
100
AcDbCircle
10
60.999999999999979
20
129.99103170679228
30
0
40
1.5000000000000002
210
0
220
0
230
1
0
CIRCLE
5
109
100
AcDbEntity
8
0
100
AcDbCircle
10
60.999999999999979
20
55.99103170679227
30
0
40
1.5000000000000002
210
0
220
0
230
1
0
CIRCLE
5
110
100
AcDbEntity
8
0
100
AcDbCircle
10
94.999999999999986
20
55.99103170679227
30
0
40
1.5000000000000002
210
0
220
0
230
1
0
CIRCLE
5
111
100
AcDbEntity
8
0
100
AcDbCircle
10
-95.000000000000028
20
-150.00896829320772
30
0
40
1.4999999999999973
210
0
220
0
230
1
0
CIRCLE
5
112
100
AcDbEntity
8
0
100
AcDbCircle
10
-61.000000000000028
20
-150.00896829320772
30
0
40
1.499999999999998
210
0
220
0
230
1
0
CIRCLE
5
113
100
AcDbEntity
8
0
100
AcDbCircle
10
-95.000000000000028
20
-76.008968293207715
30
0
40
1.4999999999999987
210
0
220
0
230
1
0
CIRCLE
5
114
100
AcDbEntity
8
0
100
AcDbCircle
10
-61.000000000000028
20
-76.00896829320773
30
0
40
1.4999999999999982
210
0
220
0
230
1
0
CIRCLE
5
115
100
AcDbEntity
8
0
100
AcDbCircle
10
114.99999999999999
20
-121.00896829320772
30
0
40
1.5000000000000056
210
0
220
0
230
1
0
CIRCLE
5
116
100
AcDbEntity
8
0
100
AcDbCircle
10
57.999999999999979
20
-121.00896829320772
30
0
40
1.5000000000000016
210
0
220
0
230
1
0
CIRCLE
5
117
100
AcDbEntity
8
0
100
AcDbCircle
10
30.500000000000437
20
8.1000000000003745
30
0
40
1.4999999999999993
210
0
220
0
230
1
0
CIRCLE
5
118
100
AcDbEntity
8
0
100
AcDbCircle
10
31.500000000000444
20
-19.899999999999636
30
0
40
1.4999999999999993
210
0
220
0
230
1
0
CIRCLE
5
119
100
AcDbEntity
8
0
100
AcDbCircle
10
-20.499999999999567
20
23.100000000000371
30
0
40
1.4999999999999993
210
0
220
0
230
1
0
CIRCLE
5
120
100
AcDbEntity
8
0
100
AcDbCircle
10
-21.999999999999563
20
-23.899999999999643
30
0
40
1.4999999999999989
210
0
220
0
230
1
0
CIRCLE
5
121
100
AcDbEntity
8
0
100
AcDbCircle
10
124.99999999999999
20
69.99103170679227
30
0
40
1.4999999999999911
210
0
220
0
230
1
0
CIRCLE
5
122
100
AcDbEntity
8
0
100
AcDbCircle
10
124.99999999999999
20
-90.008968293207715
30
0
40
1.5000000000000009
210
0
220
0
230
1
0
CIRCLE
5
123
100
AcDbEntity
8
0
100
AcDbCircle
10
-125.00000000000003
20
69.99103170679227
30
0
40
1.5000000000000049
210
0
220
0
230
1
0
CIRCLE
5
124
100
AcDbEntity
8
0
100
AcDbCircle
10
-125.00000000000003
20
-90.008968293207715
30
0
40
1.4999999999999933
210
0
220
0
230
1
0
CIRCLE
5
125
100
AcDbEntity
8
0
100
AcDbCircle
10
6.2339170701235709
20
29.184019142040135
30
0
40
1.5000000000000009
210
0
220
0
230
1
0
CIRCLE
5
126
100
AcDbEntity
8
0
100
AcDbCircle
10
-12.766082929876427
20
-29.815980857959868
30
0
40
1.5000000000000016
210
0
220
0
230
1
0
CIRCLE
5
127
100
AcDbEntity
8
0
100
AcDbCircle
10
110.40392734471
20
34.54227991022082
30
0
40
1.5000000000000036
210
0
220
0
230
1
0
CIRCLE
5
128
100
AcDbEntity
8
0
100
AcDbCircle
10
73.40392734471169
20
-36.387262595001545
30
0
40
1.5000000000000036
210
0
220
0
230
1
0
CIRCLE
5
129
100
AcDbEntity
8
0
100
AcDbCircle
10
115
20
100.99103170679226
30
0
40
1.4999999999999944
210
0
220
0
230
1
0
CIRCLE
5
130
100
AcDbEntity
8
0
100
AcDbCircle
10
58
20
100.99103170679226
30
0
40
1.5000000000000031
210
0
220
0
230
1
0
CIRCLE
5
131
100
AcDbEntity
8
0
100
AcDbCircle
10
61.499999999999986
20
-76.00896829320773
30
0
40
1.5000000000000036
210
0
220
0
230
1
0
CIRCLE
5
132
100
AcDbEntity
8
0
100
AcDbCircle
10
61.499999999999986
20
-150.00896829320772
30
0
40
1.5000000000000036
210
0
220
0
230
1
0
CIRCLE
5
133
100
AcDbEntity
8
0
100
AcDbCircle
10
95.499999999999986
20
-76.00896829320773
30
0
40
1.5000000000000036
210
0
220
0
230
1
0
CIRCLE
5
134
100
AcDbEntity
8
0
100
AcDbCircle
10
95.499999999999986
20
-150.00896829320772
30
0
40
1.5000000000000002
210
0
220
0
230
1
0
CIRCLE
5
135
100
AcDbEntity
8
0
100
AcDbCircle
10
35.750000000000014
20
18.899999999999991
30
0
40
1.5000000000000009
210
0
220
0
230
1
0
CIRCLE
5
136
100
AcDbEntity
8
0
100
AcDbCircle
10
-35.249999999999979
20
-17.964617182333537
30
0
40
1.5
210
0
220
0
230
1
0
ENDSEC
0
SECTION
2
OBJECTS
0
DICTIONARY
5
C
100
AcDbDictionary
3
ACAD_GROUP
350
D
3
ACAD_MLINESTYLE
350
17
0
DICTIONARY
5
D
100
AcDbDictionary
0
DICTIONARY
5
1A
330
C
100
AcDbDictionary
0
DICTIONARY
5
17
100
AcDbDictionary
0
ENDSEC
0
EOF
